<svg id="svg" version="1.1" xmlns="http://www.w3.org/2000/svg" xmlns:xlink="http://www.w3.org/1999/xlink" width="400" height="400" viewBox="0, 0, 400,400"><g id="svgg"><path id="path0" d="M129.911 115.514 C 130.730 117.012,138.688 131.505,147.596 147.719 L 163.793 177.200 175.878 177.200 L 187.964 177.200 183.997 169.500 C 181.815 165.265,174.374 150.820,167.462 137.400 L 154.894 113.000 141.657 112.895 L 128.421 112.789 129.911 115.514 M229.000 144.610 C 219.980 162.096,212.540 176.582,212.467 176.801 C 212.380 177.060,216.514 177.200,224.273 177.200 L 236.213 177.200 252.406 147.719 C 261.313 131.505,269.269 117.015,270.086 115.519 L 271.573 112.800 258.486 112.809 L 245.400 112.817 229.000 144.610 M199.488 182.974 C 196.059 183.886,194.637 185.908,194.161 190.548 L 193.890 193.200 192.145 193.200 C 190.417 193.200,190.400 193.214,190.400 194.600 C 190.400 195.993,190.410 196.000,192.200 196.000 L 194.000 196.000 194.000 206.400 L 194.000 216.800 196.000 216.800 L 198.000 216.800 198.000 206.400 L 198.000 196.000 200.600 196.000 L 203.200 196.000 203.200 194.600 L 203.200 193.200 200.600 193.200 L 198.000 193.200 198.000 191.387 C 198.000 187.636,199.376 186.000,202.529 186.000 C 204.131 186.000,205.724 183.836,204.726 183.015 C 204.201 182.583,201.053 182.558,199.488 182.974 M114.000 200.000 L 114.000 216.800 116.000 216.800 L 118.000 216.800 118.000 208.231 L 118.000 199.661 119.048 198.416 C 121.346 195.685,125.012 195.129,127.294 197.166 L 128.600 198.333 128.721 207.566 L 128.842 216.800 130.853 216.800 L 132.863 216.800 132.732 207.300 C 132.604 198.087,132.571 197.749,131.626 196.100 C 129.353 192.132,122.748 191.602,119.100 195.096 L 118.000 196.150 118.000 189.675 L 118.000 183.200 116.000 183.200 L 114.000 183.200 114.000 200.000 M145.095 185.117 C 139.882 186.987,137.519 191.741,139.565 196.246 C 140.778 198.916,143.325 200.497,150.164 202.825 C 156.516 204.988,158.662 208.324,155.933 211.795 C 152.558 216.085,142.000 213.856,142.000 208.853 C 142.000 208.096,141.775 208.000,140.000 208.000 C 137.817 208.000,137.486 208.596,138.373 210.930 C 141.640 219.521,158.746 219.364,160.818 210.723 C 162.145 205.195,159.407 202.116,150.368 198.970 C 144.321 196.865,142.422 195.138,142.967 192.238 C 144.142 185.970,155.644 186.132,156.651 192.431 L 156.902 194.000 158.997 194.000 L 161.093 194.000 160.814 192.500 C 159.654 186.257,151.973 182.650,145.095 185.117 M60.900 185.279 C 61.011 185.565,63.464 190.102,66.351 195.359 L 71.600 204.919 71.600 210.859 L 71.600 216.800 73.600 216.800 L 75.600 216.800 75.600 211.008 L 75.600 205.216 81.051 195.308 C 84.049 189.859,86.579 185.265,86.674 185.100 C 86.769 184.935,85.797 184.800,84.514 184.800 L 82.182 184.800 78.060 192.800 C 75.793 197.200,73.817 200.796,73.669 200.791 C 73.521 200.787,71.590 197.232,69.377 192.891 L 65.354 185.000 63.026 184.879 C 61.240 184.785,60.745 184.879,60.900 185.279 M209.518 190.100 L 209.400 193.000 207.300 193.121 L 205.200 193.242 205.200 194.621 L 205.200 196.000 207.400 196.000 L 209.600 196.000 209.601 204.900 C 209.603 216.795,210.087 217.638,216.700 217.272 C 217.938 217.203,218.000 217.124,218.000 215.600 L 218.000 214.000 216.249 214.000 C 213.444 214.000,213.400 213.852,213.400 204.439 L 213.400 196.200 215.700 196.080 L 218.000 195.960 218.000 194.600 L 218.000 193.240 215.700 193.120 L 213.400 193.000 213.282 190.100 L 213.165 187.200 211.400 187.200 L 209.635 187.200 209.518 190.100 M94.463 193.309 C 92.510 193.934,89.639 196.734,89.344 198.300 L 89.100 199.600 90.928 199.600 C 92.510 199.600,92.827 199.457,93.278 198.536 C 95.668 193.663,103.019 195.231,103.300 200.675 L 103.400 202.600 98.987 202.800 C 92.309 203.103,89.231 205.050,88.581 209.384 C 87.611 215.854,96.131 219.805,101.955 215.587 L 103.550 214.431 103.675 215.516 C 103.792 216.527,103.945 216.608,105.953 216.723 C 108.041 216.842,108.096 216.818,107.809 215.923 C 107.646 215.415,107.396 211.040,107.254 206.200 C 106.978 196.818,106.894 196.423,104.797 194.659 C 102.682 192.879,97.800 192.242,94.463 193.309 M171.600 193.608 C 162.933 197.651,162.995 213.110,171.693 216.591 C 180.875 220.265,189.052 211.481,186.213 200.994 C 184.406 194.317,177.530 190.841,171.600 193.608 M262.162 193.522 C 259.457 194.642,257.820 196.239,257.216 198.345 L 256.856 199.600 258.728 199.597 C 260.375 199.595,260.679 199.455,261.262 198.432 C 264.016 193.591,271.200 195.401,271.200 200.937 L 271.200 202.714 266.700 202.875 C 260.513 203.096,258.042 204.436,256.782 208.255 C 254.550 215.018,263.190 220.054,269.691 215.780 C 271.510 214.585,271.514 214.585,271.672 215.700 C 271.784 216.487,272.069 216.615,273.952 216.723 C 275.900 216.834,276.073 216.777,275.781 216.123 C 275.605 215.725,275.355 211.440,275.227 206.600 C 274.974 197.010,274.761 196.064,272.506 194.493 C 269.923 192.694,265.226 192.253,262.162 193.522 M288.600 193.422 C 287.940 193.762,287.106 194.422,286.747 194.888 C 286.097 195.732,286.092 195.730,285.815 194.468 C 285.553 193.277,285.429 193.200,283.768 193.200 L 282.000 193.200 282.000 205.000 L 282.000 216.800 284.000 216.800 L 286.000 216.800 286.000 208.075 L 286.000 199.350 287.100 198.324 C 288.679 196.851,289.728 196.400,291.574 196.400 L 293.200 196.400 293.200 194.600 L 293.200 192.800 291.500 192.802 C 290.565 192.804,289.260 193.083,288.600 193.422 M302.353 193.917 C 291.723 199.470,295.527 217.313,307.331 217.267 C 312.830 217.245,317.665 213.831,314.973 211.871 C 313.983 211.149,313.957 211.155,312.591 212.354 C 307.935 216.442,300.400 213.302,300.400 207.274 L 300.400 206.000 308.400 206.000 L 316.400 206.000 316.400 203.673 C 316.400 195.062,309.429 190.221,302.353 193.917 M326.262 193.383 C 323.377 194.412,321.600 196.781,321.600 199.600 C 321.600 203.122,323.317 204.605,329.229 206.186 C 334.573 207.615,336.409 209.305,335.290 211.763 C 333.613 215.444,326.424 215.061,324.911 211.210 C 323.779 208.328,320.009 208.846,321.006 211.746 C 324.013 220.494,341.104 218.344,339.432 209.429 C 338.862 206.393,336.611 204.823,330.485 203.189 C 325.296 201.804,323.747 199.352,326.542 196.948 C 329.045 194.795,335.200 196.510,335.200 199.360 C 335.200 199.861,335.633 200.000,337.200 200.000 C 339.603 200.000,339.807 199.306,338.206 196.574 C 336.282 193.291,330.702 191.800,326.262 193.383 M220.921 193.738 C 221.088 194.172,225.787 210.285,227.268 215.500 C 227.610 216.703,227.763 216.800,229.319 216.794 L 231.000 216.788 232.069 213.294 C 235.385 202.457,236.512 199.155,236.791 199.460 C 236.962 199.647,238.326 203.625,239.822 208.300 L 242.541 216.800 244.186 216.800 L 245.830 216.800 249.228 205.100 L 252.625 193.400 250.851 193.276 C 248.636 193.120,248.990 192.375,246.436 202.582 C 245.245 207.339,244.157 211.089,244.017 210.916 C 243.877 210.742,243.287 209.070,242.707 207.200 C 242.127 205.330,240.905 201.405,239.992 198.479 L 238.332 193.157 236.691 193.279 L 235.050 193.400 232.406 201.886 C 230.951 206.554,229.663 210.470,229.544 210.589 C 229.425 210.708,228.844 208.960,228.254 206.703 C 227.664 204.446,226.622 200.485,225.939 197.900 L 224.697 193.200 222.706 193.200 C 221.202 193.200,220.765 193.332,220.921 193.738 M180.233 197.770 C 185.846 203.628,182.063 215.280,174.896 214.205 C 169.979 213.468,167.428 205.622,170.182 199.707 C 172.163 195.453,177.101 194.501,180.233 197.770 M309.913 196.624 C 311.003 197.387,311.856 198.978,312.346 201.158 L 312.715 202.800 306.514 202.800 L 300.313 202.800 300.580 201.700 C 301.715 197.025,306.652 194.340,309.913 196.624 M103.518 207.848 C 103.761 212.900,97.573 216.109,93.906 212.833 C 89.915 209.266,93.739 205.098,100.800 205.319 L 103.400 205.400 103.518 207.848 M271.200 207.911 C 271.200 212.732,266.656 215.601,262.458 213.430 C 257.204 210.713,261.190 205.303,268.500 205.228 L 271.200 205.200 271.200 207.911 M188.400 255.000 L 188.400 287.200 200.000 287.200 L 211.600 287.200 211.600 255.000 L 211.600 222.800 200.000 222.800 L 188.400 222.800 188.400 255.000 " stroke="none" fill="#f3f2f2" fill-rule="evenodd"></path><path id="path1" d="M0.000 200.000 L 0.000 400.000 200.000 400.000 L 400.000 400.000 400.000 200.000 L 400.000 0.000 200.000 0.000 L 0.000 0.000 0.000 200.000 M171.214 144.100 C 180.068 161.315,187.561 175.895,187.866 176.500 L 188.421 177.600 176.054 177.600 L 163.688 177.600 146.044 145.453 C 136.340 127.772,128.400 113.192,128.400 113.053 C 128.400 112.914,134.411 112.800,141.759 112.800 L 155.118 112.800 171.214 144.100 M271.600 113.061 C 271.600 113.205,263.659 127.785,253.954 145.461 L 236.308 177.600 224.125 177.600 C 214.331 177.600,211.967 177.498,212.071 177.080 C 212.212 176.512,242.180 118.306,244.084 114.900 L 245.259 112.800 258.429 112.800 C 265.673 112.800,271.600 112.918,271.600 113.061 M204.800 184.390 C 204.800 186.374,204.797 186.379,203.636 186.147 C 200.585 185.537,198.400 187.554,198.400 190.980 L 198.400 192.800 201.000 192.800 L 203.600 192.800 203.600 194.600 L 203.600 196.400 201.000 196.400 L 198.400 196.400 198.400 206.800 L 198.400 217.200 196.200 217.200 L 194.000 217.200 194.000 206.800 L 194.000 196.400 192.000 196.400 L 190.000 196.400 190.000 194.600 L 190.000 192.800 192.000 192.800 L 194.000 192.800 194.000 190.387 C 194.000 185.193,196.790 182.448,202.100 182.416 L 204.800 182.400 204.800 184.390 M118.400 189.070 L 118.400 195.339 119.311 194.483 C 122.132 191.833,127.708 191.769,130.549 194.354 C 132.736 196.344,132.929 197.347,133.118 207.700 L 133.292 217.200 130.846 217.200 L 128.400 217.200 128.400 208.006 L 128.400 198.813 127.300 197.627 C 125.509 195.696,122.274 195.793,120.001 197.847 L 118.400 199.293 118.400 208.247 L 118.400 217.200 116.000 217.200 L 113.600 217.200 113.600 200.000 L 113.600 182.800 116.000 182.800 L 118.400 182.800 118.400 189.070 M155.087 185.196 C 158.580 186.739,161.171 190.094,161.191 193.100 L 161.200 194.400 159.032 194.400 C 156.910 194.400,156.858 194.372,156.584 193.100 C 155.168 186.527,144.179 185.915,143.315 192.361 C 142.908 195.391,144.221 196.522,150.774 198.791 C 158.916 201.610,161.202 203.800,161.198 208.778 C 161.193 214.618,156.587 217.929,149.037 217.517 C 142.706 217.173,137.645 213.268,137.609 208.700 C 137.596 207.152,141.769 206.971,142.200 208.500 C 143.123 211.774,144.920 213.293,148.486 213.812 C 154.010 214.616,158.262 210.787,156.223 206.844 C 155.348 205.152,153.785 204.250,149.172 202.775 C 140.711 200.069,137.527 196.507,138.805 191.179 C 140.217 185.293,148.454 182.266,155.087 185.196 M69.400 192.238 C 71.600 196.540,73.500 200.125,73.622 200.205 C 73.744 200.285,75.693 196.762,77.953 192.375 L 82.062 184.400 84.631 184.400 C 86.044 184.400,87.200 184.466,87.200 184.546 C 87.200 184.627,84.680 189.287,81.600 194.901 L 76.000 205.110 76.000 211.155 L 76.000 217.200 73.600 217.200 L 71.200 217.200 71.200 210.979 L 71.200 204.759 65.800 194.919 C 59.489 183.420,59.759 184.398,62.900 184.408 L 65.400 184.417 69.400 192.238 M213.600 190.000 L 213.600 192.800 215.800 192.800 L 218.000 192.800 218.000 194.600 L 218.000 196.400 215.800 196.400 L 213.600 196.400 213.600 204.324 C 213.600 213.589,213.679 213.840,216.568 213.731 L 218.400 213.661 218.400 215.388 C 218.400 217.385,218.084 217.600,215.147 217.600 C 210.004 217.600,209.432 216.401,209.273 205.300 L 209.145 196.400 206.973 196.400 L 204.800 196.400 204.800 194.600 L 204.800 192.800 207.000 192.800 L 209.200 192.800 209.200 190.000 L 209.200 187.200 211.400 187.200 L 213.600 187.200 213.600 190.000 M101.647 192.806 C 106.667 194.201,107.342 195.751,107.649 206.600 C 107.787 211.440,108.033 215.805,108.196 216.300 C 108.483 217.168,108.405 217.200,106.047 217.200 C 103.941 217.200,103.600 217.098,103.600 216.467 C 103.600 215.271,103.304 215.271,100.940 216.463 C 94.454 219.735,87.931 216.061,88.480 209.445 C 88.856 204.905,92.041 202.776,98.900 202.482 L 103.200 202.297 103.200 201.136 C 103.200 195.795,95.313 193.937,93.462 198.842 C 92.883 200.376,88.800 200.666,88.800 199.174 C 88.800 194.803,95.996 191.237,101.647 192.806 M178.992 192.847 C 188.879 195.591,190.008 212.280,180.603 216.659 C 172.650 220.363,165.041 214.673,165.012 205.000 C 164.985 196.134,171.242 190.695,178.992 192.847 M271.500 193.545 C 275.011 195.345,275.366 196.460,275.638 206.570 C 275.769 211.426,276.015 215.805,276.185 216.300 C 276.482 217.168,276.407 217.200,274.090 217.200 C 271.875 217.200,271.668 217.123,271.441 216.222 L 271.196 215.245 268.957 216.422 C 262.971 219.571,256.286 216.289,256.286 210.200 C 256.286 205.098,260.241 202.400,267.718 202.400 L 271.309 202.400 271.052 200.526 C 270.585 197.117,268.381 195.539,264.978 196.178 C 263.381 196.477,261.200 198.320,261.200 199.369 C 261.200 199.867,260.737 200.000,259.000 200.000 C 256.440 200.000,256.181 199.410,257.621 196.848 C 259.887 192.816,266.847 191.160,271.500 193.545 M293.521 194.700 L 293.642 196.800 291.583 196.800 C 286.603 196.800,286.000 198.091,286.000 208.762 L 286.000 217.200 283.800 217.200 L 281.600 217.200 281.600 205.000 L 281.600 192.800 283.800 192.800 C 285.978 192.800,286.000 192.812,286.000 194.000 L 286.000 195.200 286.833 194.367 C 288.078 193.122,290.004 192.400,291.800 192.506 L 293.400 192.600 293.521 194.700 M310.238 192.989 C 314.032 194.116,316.398 197.880,316.719 203.300 L 316.903 206.400 308.661 206.400 L 300.420 206.400 300.652 207.700 C 301.721 213.698,308.018 215.969,312.549 211.991 L 313.987 210.728 315.171 211.664 C 319.152 214.810,309.362 219.106,303.086 216.967 C 299.211 215.647,296.490 211.611,296.114 206.627 C 295.387 196.976,302.037 190.554,310.238 192.989 M335.383 193.592 C 337.487 194.610,339.002 196.604,339.418 198.900 L 339.689 200.400 337.521 200.400 C 335.386 200.400,335.344 200.377,334.666 198.840 C 332.725 194.442,324.621 195.645,325.755 200.163 C 326.068 201.410,327.256 202.048,331.329 203.160 C 338.958 205.241,341.790 209.430,338.685 214.041 C 334.413 220.383,320.400 217.603,320.400 210.413 C 320.400 208.843,324.583 209.245,325.045 210.859 C 326.272 215.137,335.200 214.909,335.200 210.600 C 335.200 208.730,333.895 207.799,329.600 206.602 C 323.151 204.806,321.200 203.151,321.200 199.479 C 321.200 193.885,329.162 190.580,335.383 193.592 M227.216 201.600 L 229.485 210.200 231.370 204.200 C 232.407 200.900,233.641 196.977,234.112 195.482 L 234.969 192.763 236.774 192.882 L 238.579 193.000 241.254 201.531 C 242.726 206.224,243.998 210.131,244.082 210.215 C 244.165 210.299,245.210 206.414,246.404 201.584 L 248.574 192.800 250.687 192.800 C 253.375 192.800,253.684 191.093,246.758 214.521 L 245.954 217.242 244.112 217.121 L 242.271 217.000 240.536 211.600 C 239.582 208.630,238.326 204.670,237.745 202.800 L 236.690 199.400 235.376 203.600 C 234.653 205.910,233.398 209.924,232.588 212.520 L 231.113 217.240 229.258 217.120 L 227.403 217.000 223.913 205.000 C 221.993 198.400,220.418 192.946,220.411 192.880 C 220.405 192.814,221.423 192.814,222.673 192.880 L 224.947 193.000 227.216 201.600 M174.200 196.293 C 168.549 197.708,167.526 209.632,172.759 213.099 C 177.462 216.215,182.410 212.069,182.391 205.028 C 182.374 198.651,179.029 195.084,174.200 196.293 M304.600 196.540 C 303.088 197.234,302.197 198.230,301.415 200.102 C 300.263 202.860,300.148 202.800,306.632 202.800 L 312.464 202.800 312.186 201.500 C 311.229 197.014,308.070 194.948,304.600 196.540 M95.800 206.203 C 91.080 207.876,92.052 213.600,97.055 213.600 C 101.147 213.600,103.200 211.711,103.200 207.946 L 103.200 205.600 100.300 205.618 C 98.705 205.627,96.680 205.890,95.800 206.203 M263.800 206.203 C 259.753 207.638,259.875 213.477,263.955 213.642 C 268.900 213.843,271.200 212.035,271.200 207.946 L 271.200 205.600 268.300 205.618 C 266.705 205.627,264.680 205.890,263.800 206.203 M211.902 254.900 L 212.005 287.200 200.002 287.200 L 188.000 287.200 188.000 255.067 C 188.000 237.393,188.123 222.811,188.273 222.661 C 188.423 222.511,193.778 222.436,200.173 222.494 L 211.800 222.600 211.902 254.900 " stroke="none" fill="#cc5464" fill-rule="evenodd"></path><path id="path2" d="M203.260 194.481 L 203.200 195.962 200.700 196.104 L 198.200 196.246 200.713 196.323 C 203.462 196.407,203.792 196.148,203.490 194.134 C 203.345 193.168,203.311 193.219,203.260 194.481 M281.777 205.000 C 281.777 211.600,281.832 214.356,281.899 211.125 C 281.966 207.893,281.966 202.493,281.899 199.125 C 281.832 195.756,281.777 198.400,281.777 205.000 M191.305 196.287 C 191.914 196.379,192.814 196.377,193.305 196.282 C 193.797 196.187,193.300 196.111,192.200 196.114 C 191.100 196.117,190.697 196.195,191.305 196.287 M206.100 196.287 C 206.705 196.378,207.695 196.378,208.300 196.287 C 208.905 196.195,208.410 196.120,207.200 196.120 C 205.990 196.120,205.495 196.195,206.100 196.287 M214.707 196.290 C 215.426 196.379,216.506 196.377,217.107 196.286 C 217.708 196.195,217.120 196.122,215.800 196.124 C 214.480 196.126,213.988 196.201,214.707 196.290 M275.361 206.000 C 275.361 209.410,275.422 210.805,275.497 209.100 C 275.572 207.395,275.572 204.605,275.497 202.900 C 275.422 201.195,275.361 202.590,275.361 206.000 M296.101 205.400 C 296.105 206.280,296.187 206.593,296.283 206.095 C 296.379 205.598,296.375 204.878,296.275 204.495 C 296.175 204.113,296.096 204.520,296.101 205.400 " stroke="none" fill="#dc8f99" fill-rule="evenodd"></path><path id="path3" d="M191.305 193.087 C 191.914 193.179,192.814 193.177,193.305 193.082 C 193.797 192.987,193.300 192.911,192.200 192.914 C 191.100 192.917,190.697 192.995,191.305 193.087 M199.500 193.089 C 200.215 193.178,201.385 193.178,202.100 193.089 C 202.815 193.001,202.230 192.928,200.800 192.928 C 199.370 192.928,198.785 193.001,199.500 193.089 M206.100 193.087 C 206.705 193.178,207.695 193.178,208.300 193.087 C 208.905 192.995,208.410 192.920,207.200 192.920 C 205.990 192.920,205.495 192.995,206.100 193.087 M214.707 193.090 C 215.426 193.179,216.506 193.177,217.107 193.086 C 217.708 192.995,217.120 192.922,215.800 192.924 C 214.480 192.926,213.988 193.001,214.707 193.090 M221.705 193.087 C 222.314 193.179,223.214 193.177,223.705 193.082 C 224.197 192.987,223.700 192.911,222.600 192.914 C 221.500 192.917,221.097 192.995,221.705 193.087 M235.900 193.082 C 236.395 193.178,237.205 193.178,237.700 193.082 C 238.195 192.987,237.790 192.909,236.800 192.909 C 235.810 192.909,235.405 192.987,235.900 193.082 M249.700 193.087 C 250.305 193.178,251.295 193.178,251.900 193.087 C 252.505 192.995,252.010 192.920,250.800 192.920 C 249.590 192.920,249.095 192.995,249.700 193.087 M282.905 193.087 C 283.514 193.179,284.414 193.177,284.905 193.082 C 285.397 192.987,284.900 192.911,283.800 192.914 C 282.700 192.917,282.297 192.995,282.905 193.087 M100.100 205.487 C 100.705 205.578,101.695 205.578,102.300 205.487 C 102.905 205.395,102.410 205.320,101.200 205.320 C 99.990 205.320,99.495 205.395,100.100 205.487 M268.100 205.487 C 268.705 205.578,269.695 205.578,270.300 205.487 C 270.905 205.395,270.410 205.320,269.200 205.320 C 267.990 205.320,267.495 205.395,268.100 205.487 M304.300 206.298 C 306.555 206.370,310.245 206.370,312.500 206.298 C 314.755 206.227,312.910 206.169,308.400 206.169 C 303.890 206.169,302.045 206.227,304.300 206.298 " stroke="none" fill="#dea4ac" fill-rule="evenodd"></path><path id="path4" d="M336.100 200.287 C 336.705 200.378,337.695 200.378,338.300 200.287 C 338.905 200.195,338.410 200.120,337.200 200.120 C 335.990 200.120,335.495 200.195,336.100 200.287 M71.360 211.000 C 71.361 214.300,71.422 215.597,71.498 213.882 C 71.573 212.167,71.572 209.467,71.497 207.882 C 71.421 206.297,71.359 207.700,71.360 211.000 M218.109 215.600 C 218.109 216.590,218.187 216.995,218.282 216.500 C 218.378 216.005,218.378 215.195,218.282 214.700 C 218.187 214.205,218.109 214.610,218.109 215.600 M188.191 255.000 C 188.191 272.820,188.240 280.168,188.300 271.330 C 188.360 262.491,188.360 247.911,188.300 238.930 C 188.240 229.948,188.191 237.180,188.191 255.000 M211.791 255.000 C 211.791 272.820,211.840 280.168,211.900 271.330 C 211.960 262.491,211.960 247.911,211.900 238.930 C 211.840 229.948,211.791 237.180,211.791 255.000 " stroke="none" fill="#d4737c" fill-rule="evenodd"></path><path id="path5" d="M114.900 183.087 C 115.505 183.178,116.495 183.178,117.100 183.087 C 117.705 182.995,117.210 182.920,116.000 182.920 C 114.790 182.920,114.295 182.995,114.900 183.087 M209.334 190.000 C 209.334 191.650,209.405 192.325,209.491 191.500 C 209.578 190.675,209.578 189.325,209.491 188.500 C 209.405 187.675,209.334 188.350,209.334 190.000 M213.334 190.000 C 213.334 191.650,213.405 192.325,213.491 191.500 C 213.578 190.675,213.578 189.325,213.491 188.500 C 213.405 187.675,213.334 188.350,213.334 190.000 M198.120 191.200 C 198.120 192.410,198.195 192.905,198.287 192.300 C 198.378 191.695,198.378 190.705,198.287 190.100 C 198.195 189.495,198.120 189.990,198.120 191.200 M293.193 194.681 C 293.087 195.825,293.147 196.615,293.326 196.435 C 293.505 196.256,293.591 195.319,293.518 194.354 L 293.385 192.600 293.193 194.681 M204.901 194.600 C 204.905 195.480,204.987 195.793,205.083 195.295 C 205.179 194.798,205.175 194.078,205.075 193.695 C 204.975 193.313,204.896 193.720,204.901 194.600 M198.093 206.279 L 198.000 216.758 195.900 216.905 L 193.800 217.052 195.913 217.126 C 198.605 217.220,198.435 218.013,198.300 205.993 L 198.186 195.800 198.093 206.279 M209.369 204.000 C 209.369 208.510,209.427 210.355,209.498 208.100 C 209.570 205.845,209.570 202.155,209.498 199.900 C 209.427 197.645,209.369 199.490,209.369 204.000 M213.367 203.800 C 213.367 207.980,213.426 209.636,213.498 207.479 C 213.571 205.323,213.570 201.903,213.498 199.879 C 213.425 197.856,213.366 199.620,213.367 203.800 M321.293 199.600 C 321.293 200.370,321.375 200.685,321.476 200.300 C 321.576 199.915,321.576 199.285,321.476 198.900 C 321.375 198.515,321.293 198.830,321.293 199.600 M103.246 201.283 C 103.201 202.351,103.156 202.368,100.100 202.503 L 97.000 202.639 100.113 202.720 C 103.381 202.804,103.896 202.529,103.480 200.923 C 103.356 200.443,103.277 200.564,103.246 201.283 M107.363 206.800 C 107.363 210.430,107.423 211.915,107.498 210.100 C 107.572 208.285,107.572 205.315,107.498 203.500 C 107.423 201.685,107.363 203.170,107.363 206.800 M266.711 202.693 C 267.651 202.778,269.091 202.777,269.911 202.691 C 270.730 202.605,269.960 202.536,268.200 202.537 C 266.440 202.539,265.770 202.609,266.711 202.693 M316.501 204.600 C 316.505 205.480,316.587 205.793,316.683 205.295 C 316.779 204.798,316.775 204.078,316.675 203.695 C 316.575 203.313,316.496 203.720,316.501 204.600 M75.688 210.679 L 75.600 216.758 73.500 216.905 L 71.400 217.052 73.513 217.126 C 76.145 217.218,76.051 217.483,75.900 210.382 L 75.776 204.600 75.688 210.679 M103.328 208.000 C 103.328 209.430,103.401 210.015,103.489 209.300 C 103.578 208.585,103.578 207.415,103.489 206.700 C 103.401 205.985,103.328 206.570,103.328 208.000 M137.646 208.500 C 137.680 209.145,137.743 209.207,137.872 208.720 C 138.004 208.217,138.590 208.002,140.125 207.894 L 142.200 207.748 139.900 207.674 C 137.747 207.605,137.603 207.658,137.646 208.500 M106.000 216.800 L 103.800 217.070 105.876 217.135 C 107.018 217.171,108.064 217.020,108.200 216.800 C 108.336 216.580,108.392 216.429,108.324 216.465 C 108.256 216.501,107.210 216.652,106.000 216.800 M271.963 216.924 C 272.142 217.103,273.169 217.190,274.244 217.118 L 276.200 216.987 273.919 216.794 C 272.664 216.687,271.784 216.746,271.963 216.924 M114.900 217.087 C 115.505 217.178,116.495 217.178,117.100 217.087 C 117.705 216.995,117.210 216.920,116.000 216.920 C 114.790 216.920,114.295 216.995,114.900 217.087 M129.700 217.087 C 130.305 217.178,131.295 217.178,131.900 217.087 C 132.505 216.995,132.010 216.920,130.800 216.920 C 129.590 216.920,129.095 216.995,129.700 217.087 M228.300 217.082 C 228.795 217.178,229.605 217.178,230.100 217.082 C 230.595 216.987,230.190 216.909,229.200 216.909 C 228.210 216.909,227.805 216.987,228.300 217.082 M243.100 217.082 C 243.595 217.178,244.405 217.178,244.900 217.082 C 245.395 216.987,244.990 216.909,244.000 216.909 C 243.010 216.909,242.605 216.987,243.100 217.082 M282.900 217.087 C 283.505 217.178,284.495 217.178,285.100 217.087 C 285.705 216.995,285.210 216.920,284.000 216.920 C 282.790 216.920,282.295 216.995,282.900 217.087 " stroke="none" fill="#e4acac" fill-rule="evenodd"></path><path id="path6" d="M169.900 177.499 C 173.255 177.566,178.745 177.566,182.100 177.499 C 185.455 177.432,182.710 177.378,176.000 177.378 C 169.290 177.378,166.545 177.432,169.900 177.499 M217.900 177.499 C 221.255 177.566,226.745 177.566,230.100 177.499 C 233.455 177.432,230.710 177.378,224.000 177.378 C 217.290 177.378,214.545 177.432,217.900 177.499 M190.101 194.600 C 190.105 195.480,190.187 195.793,190.283 195.295 C 190.379 194.798,190.375 194.078,190.275 193.695 C 190.175 193.313,190.096 193.720,190.101 194.600 M194.100 222.699 C 197.345 222.766,202.655 222.766,205.900 222.699 C 209.145 222.632,206.490 222.577,200.000 222.577 C 193.510 222.577,190.855 222.632,194.100 222.699 " stroke="none" fill="#dc7c8c" fill-rule="evenodd"></path><path id="path7" d="M113.783 200.000 C 113.783 209.350,113.836 213.175,113.900 208.500 C 113.964 203.825,113.964 196.175,113.900 191.500 C 113.836 186.825,113.783 190.650,113.783 200.000 M61.500 184.689 C 62.215 184.778,63.385 184.778,64.100 184.689 C 64.815 184.601,64.230 184.528,62.800 184.528 C 61.370 184.528,60.785 184.601,61.500 184.689 M83.507 184.690 C 84.226 184.779,85.306 184.777,85.907 184.686 C 86.508 184.595,85.920 184.522,84.600 184.524 C 83.280 184.526,82.788 184.601,83.507 184.690 M90.105 199.887 C 90.714 199.979,91.614 199.977,92.105 199.882 C 92.597 199.787,92.100 199.711,91.000 199.714 C 89.900 199.717,89.497 199.795,90.105 199.887 M258.105 199.887 C 258.714 199.979,259.614 199.977,260.105 199.882 C 260.597 199.787,260.100 199.711,259.000 199.714 C 257.900 199.717,257.497 199.795,258.105 199.887 M128.568 209.000 C 128.568 213.400,128.626 215.255,128.698 213.121 C 128.770 210.988,128.770 207.388,128.699 205.121 C 128.627 202.855,128.568 204.600,128.568 209.000 " stroke="none" fill="#dc7c84" fill-rule="evenodd"></path><path id="path8" d="M118.162 189.000 C 118.162 192.520,118.224 193.906,118.298 192.081 C 118.372 190.256,118.372 187.376,118.297 185.681 C 118.222 183.986,118.161 185.480,118.162 189.000 M157.907 194.290 C 158.626 194.379,159.706 194.377,160.307 194.286 C 160.908 194.195,160.320 194.122,159.000 194.124 C 157.680 194.126,157.188 194.201,157.907 194.290 M118.170 208.600 C 118.171 213.440,118.229 215.365,118.299 212.878 C 118.369 210.391,118.369 206.431,118.298 204.078 C 118.228 201.725,118.170 203.760,118.170 208.600 M132.969 209.000 C 132.970 213.620,133.028 215.455,133.099 213.078 C 133.170 210.701,133.169 206.921,133.098 204.678 C 133.027 202.435,132.969 204.380,132.969 209.000 " stroke="none" fill="#d46474" fill-rule="evenodd"></path></g></svg>